<?xml version="1.0" encoding="utf-8"?>
<!-- Generator: Adobe Illustrator 23.1.0, SVG Export Plug-In . SVG Version: 6.00 Build 0)  -->
<svg version="1.1" id="LT100" xmlns="http://www.w3.org/2000/svg" xmlns:xlink="http://www.w3.org/1999/xlink" x="0px" y="0px"
	 viewBox="6.8 13.4 128 10.1" style="enable-background:new 6.8 13.4 128 10.1;" xml:space="preserve">
<g id="Logo">
	<path d="M100.39,22.24c-0.46,0-0.88-0.23-1.1-0.61l-4.57-7.89h0h-1.08h0l-4.57,7.89c-0.22,0.38-0.64,0.61-1.1,0.61h-0.45v0.93h3.41
		v-0.93l-0.54,0c-0.13,0.01-0.6-0.03-0.34-0.5l0.75-1.28c0.02-0.04,0.06-0.06,0.1-0.06h3.96c0.04,0,0.08,0.02,0.1,0.06l0.74,1.28
		c0.01,0.01,0.34,0.53-0.36,0.5H94.2v0.93h6.52v-0.93H100.39z M91.42,19.38l1.46-2.53c0,0,0,0,0,0l1.55,2.53H91.42z"/>
	<path d="M87.52,13.73l-3.21,0v0.9c0.6,0.01,1.1,0.7,1.1,1.19c0,0-0.01,4.44-0.01,4.51c-0.65-1.16-3.8-6.6-3.8-6.6h-4.23v0.89
		c0.61,0.03,1.15,0.58,1.15,1.23v5.22c0,0.61-0.45,1.11-1.1,1.23h-0.05v0.87h3.17V22.3c-0.64-0.1-1.1-0.63-1.1-1.24
		c0,0,0.01-4.71,0.01-4.78c0.65,1.16,4.13,6.88,4.13,6.88h2.75v-7.41c0-0.43,0.43-1.07,1.07-1.13l0.12-0.03L87.52,13.73z"/>
	<path d="M51.64,13.74v0.88h0.06c0.61,0.12,1.08,0.61,1.08,1.28v5.08c0,0.67-0.37,1.17-1.08,1.32h-0.06v0.87h0.12h4.87V22.3h-0.05
		c-0.63-0.08-1.1-0.63-1.1-1.24v-5.29c0-0.61,0.65-1.13,1.1-1.14h0.05v-0.89h-4.88H51.64z"/>
	<path d="M67.03,20.61c0-1.77-1.62-2.28-1.65-2.29c0.94-0.73,1.16-1.33,1.16-2.13c0-1.35-1.1-2.45-2.45-2.45h-6.18H57.8v0.88h0.06
		c0.61,0.12,1.08,0.61,1.08,1.28v5.08c0,0.67-0.37,1.17-1.08,1.32H57.8v0.87h0.12l6.74,0c1.84-0.14,2.5-1.85,2.37-2.55
		C67.03,20.62,67.03,20.61,67.03,20.61 M61.65,14.85h1.21c0.8,0,1.38,0.37,1.38,1.17c0,1.01-0.58,1.42-1.38,1.42h-1.21L61.65,14.85z
		 M62.86,21.28h-1.21v-0.1c0,0,0,0,0,0l0-2.5h1.21c0.8,0,1.47,0.41,1.47,1.24C64.33,21.08,63.66,21.28,62.86,21.28"/>
	<path d="M14.16,20.39c0,1.56-1.04,1.89-1.62,1.89c-0.88,0-1.59-0.69-1.6-1.56v0v-4.95c0-0.61,0.65-1.13,1.1-1.14h0.05v-0.89H7.2
		H7.09v0.88h0.06c0.61,0.12,1.08,0.61,1.08,1.28v5.08c0,0.67-0.37,1.17-1.08,1.32H7.09v0.87l7.91,0V22.3v-3.61h-0.87L14.16,20.39z"
		/>
	<path d="M27.57,21.63L23,13.74h0h-1.08h0l-4.57,7.89c-0.22,0.38-0.64,0.61-1.1,0.61h-0.45v0.93h3.41v-0.93l-0.54,0
		c-0.13,0.01-0.6-0.03-0.34-0.5l0.75-1.28c0.02-0.04,0.06-0.06,0.1-0.06h3.96c0.04,0,0.08,0.02,0.1,0.06l0.74,1.28
		c0.01,0.01,0.34,0.53-0.36,0.5h-1.15v0.93H29v-0.93h-0.33C28.21,22.24,27.79,22.01,27.57,21.63 M19.7,19.38l1.46-2.53c0,0,0,0,0,0
		l1.55,2.53H19.7z"/>
	<path d="M49.73,21.17c0.07-0.37,0.08-0.8,0-1.2c-0.2-0.88-0.73-1.26-1.29-1.48c0.92-0.35,1.57-1.26,1.57-2.3
		c0-1.35-1.1-2.45-2.45-2.45l-6.17,0h-0.12v0.88h0.06c0.61,0.12,1.08,0.61,1.08,1.28v5.08c0,0.67-0.37,1.17-1.08,1.32h-0.06v0.87
		h0.12h4.87V22.3h-0.05c-0.63-0.08-1.1-0.63-1.1-1.24v-2.37h0.9c0.06,0.01,0.03,0,0.07,0.01c0.86,0.13,1.05,1.22,0.97,1.33
		c-0.45,0.6-0.41,2.25,0.8,2.87c0.15,0.08,0.43,0.23,0.81,0.28h1.96V22.3c-0.17-0.03-0.38,0-0.63-0.26
		C49.76,21.79,49.67,21.51,49.73,21.17 M46.15,17.75h-1.04l0.02-2.9c0.15,0,0.99,0,1.04,0c0.86,0,1.6,0.49,1.6,1.35
		C47.77,17.08,47.02,17.75,46.15,17.75"/>
	<path d="M73.73,14.63c0.59,0.07,1.08,0.58,1.09,1.17l0.01,3.61c0,1.05-0.8,1.85-1.85,1.89c-1.11,0.05-2.02-0.73-2.02-1.83
		l-0.01-3.71c0-0.6,0.61-1.1,1.11-1.14h0.05l0-0.88h-4.97h-0.01v0.89c0.63,0.03,1.13,0.56,1.15,1.19v4.34
		c0,1.66,1.45,3.01,3.11,3.01h1.35c1.66,0,3.01-1.35,3.01-3.01V15.8c0-0.6,0.61-1.16,1.1-1.16h0.05v-0.9h-3.17V14.63z"/>
	<path d="M31.99,16.45h1.25v-0.23c0-0.89,0.8-1.52,1.62-1.33l0,0l0,6.1c0,0.32-0.09,0.6-0.25,0.82c-0.28,0.34-0.77,0.58-1.36,0.46
		v0.91h0.2v0h5.49l0,0h0.2v-0.92c-0.45,0.13-0.91-0.01-1.22-0.31c-0.23-0.23-0.37-0.55-0.37-0.88l-0.02-6.2
		c1-0.12,1.62,0.51,1.62,1.36v0.23h1.17v-2.71h-8.34V16.45z"/>
	<path d="M115.96,18.43c0-2.23-1.81-4.04-4.04-4.04s-4.04,1.81-4.04,4.04c0,2.23,1.81,4.04,4.04,4.04S115.96,20.65,115.96,18.43
		 M108.21,18.43c0-2.05,1.67-3.71,3.71-3.71s3.71,1.67,3.71,3.71c0,2.05-1.67,3.71-3.71,3.71S108.21,20.47,108.21,18.43"/>
	<path d="M112.99,18.43c0-0.59-0.48-1.06-1.06-1.06c-0.59,0-1.06,0.48-1.06,1.06c0,0.59,0.48,1.06,1.06,1.06
		C112.51,19.49,112.99,19.01,112.99,18.43"/>
	<path d="M127.93,21.02c0.03,0.11,0.13,0.18,0.24,0.18h4.09c0.05,0,0.1-0.01,0.14-0.04l1.88-1.21c0.1-0.06,0.14-0.18,0.11-0.29
		c-0.03-0.11-0.13-0.18-0.25-0.18h-0.62c0.12-0.32,0.15-0.81-0.28-1.14l-0.09-0.07l-2.04,1.21h-1.14c-0.05,0-0.1,0.01-0.14,0.04
		l-1.81,1.21C127.94,20.79,127.9,20.91,127.93,21.02 M131.03,21.04L131.03,21.04z M132.25,20.87h-0.66
		c0.67-0.43,1.17-0.74,1.48-0.94c0.1-0.06,0.16-0.1,0.21-0.13h0.64L132.25,20.87z M133.17,19.49c-0.09,0.06-0.42,0.27-1.68,1.06
		c0.01-0.12,0.01-0.24-0.01-0.38c-0.03-0.18-0.08-0.35-0.12-0.46l1.76-1.04C133.4,18.97,133.23,19.37,133.17,19.49 M130.01,19.81
		h1.05c0.09,0.23,0.26,0.81-0.08,1.07h-2.57L130.01,19.81z"/>
	<path d="M132.25,21.6h-4.38c-0.09,0-0.16,0.07-0.16,0.16c0,0.09,0.07,0.16,0.16,0.16h4.48l2.21-1.42c0.08-0.05,0.1-0.15,0.05-0.22
		c-0.05-0.08-0.15-0.1-0.22-0.05L132.25,21.6z"/>
	<path d="M134.38,20.93l-2.13,1.37h-4.38c-0.09,0-0.16,0.07-0.16,0.16c0,0.09,0.07,0.16,0.16,0.16h4.48l2.21-1.42
		c0.08-0.05,0.1-0.15,0.05-0.22C134.56,20.91,134.46,20.88,134.38,20.93"/>
	<path d="M134.62,21.71c-0.05-0.08-0.15-0.1-0.22-0.05l-2.13,1.37h-7.38c1.85-0.71,3.17-2.5,3.17-4.6c0-2.71-2.21-4.92-4.92-4.92
		c-2.72,0-4.92,2.21-4.92,4.92c0,0.31,0.03,0.6,0.08,0.9l-2.1-3.36c-0.06-0.1-0.11-0.19-0.18-0.28l0,0
		c-0.89-1.31-2.39-2.18-4.09-2.18c-1.67,0-3.15,0.83-4.04,2.11l-0.04,0.68c0.77-1.46,2.31-2.46,4.07-2.46
		c1.58,0,2.98,0.81,3.81,2.03l0.17,0.28c0.39,0.68,0.61,1.46,0.61,2.29c0,2.54-2.06,4.6-4.6,4.6c-1.04,0-2-0.35-2.77-0.93v0.4
		c0.79,0.54,1.74,0.85,2.77,0.85c2.71,0,4.92-2.21,4.92-4.92c0-0.32-0.03-0.63-0.09-0.94l1.98,3.17c0.13,0.26,0.28,0.5,0.45,0.73
		l0.02,0.03l0,0c0.9,1.18,2.32,1.94,3.91,1.94c0.02,0,0.05,0,0.07,0c0,0,0.01,0,0.01,0h9.15l2.21-1.42
		C134.65,21.88,134.67,21.78,134.62,21.71 M119.46,21.2l-0.44-0.7c-0.32-0.62-0.49-1.33-0.49-2.07c0-2.54,2.06-4.6,4.6-4.6
		c2.54,0,4.6,2.06,4.6,4.6s-2.06,4.6-4.6,4.6C121.64,23.02,120.3,22.31,119.46,21.2"/>
	<path d="M107.55,21.05v-5.29v-2.03h-3.73h-0.12v0.88h0.06c0.61,0.12,1.08,0.61,1.08,1.28v5.08c0,0.67-0.37,1.17-1.08,1.32h-0.06
		v0.87h0.12h4.87v-0.87h-0.05C108.01,22.21,107.55,21.66,107.55,21.05"/>
	<path d="M120.06,17.58l-0.76,1.72h0.37l0.19-0.42h0.77l0.18,0.42h0.39l-0.75-1.72H120.06z M119.98,18.58l0.27-0.62h0.01l0.27,0.62
		H119.98z"/>
	<polygon points="122.74,18.8 122.73,18.8 121.79,17.58 121.4,17.58 121.4,19.3 121.76,19.3 121.76,18.11 121.77,18.11 122.7,19.3
		123.1,19.3 123.1,17.58 122.74,17.58 	"/>
	<path d="M122.03,17.33c0.02-0.02,0.04-0.03,0.07-0.03c0.03,0,0.07,0.01,0.11,0.03c0.04,0.02,0.08,0.04,0.12,0.06
		c0.04,0.02,0.09,0.03,0.14,0.03c0.08,0,0.15-0.03,0.2-0.09c0.05-0.06,0.08-0.15,0.08-0.28h-0.19c-0.01,0.08-0.05,0.12-0.11,0.12
		c-0.03,0-0.07-0.01-0.1-0.03c-0.04-0.02-0.08-0.04-0.12-0.06c-0.04-0.02-0.09-0.03-0.14-0.03c-0.08,0-0.15,0.03-0.2,0.09
		c-0.05,0.06-0.08,0.15-0.08,0.28h0.19C122,17.38,122.01,17.35,122.03,17.33"/>
	<path d="M123.83,19.22c0.14,0.07,0.3,0.11,0.48,0.11c0.18,0,0.34-0.04,0.48-0.11c0.14-0.07,0.24-0.18,0.32-0.31
		c0.08-0.13,0.12-0.29,0.12-0.47c0-0.18-0.04-0.34-0.11-0.47c-0.08-0.13-0.18-0.23-0.32-0.31c-0.14-0.07-0.3-0.11-0.48-0.11
		c-0.18,0-0.35,0.04-0.48,0.11c-0.14,0.07-0.24,0.17-0.32,0.31c-0.08,0.13-0.12,0.29-0.12,0.47c0,0.18,0.04,0.34,0.12,0.47
		C123.58,19.04,123.69,19.14,123.83,19.22 M123.91,18.02c0.09-0.1,0.23-0.15,0.4-0.15c0.17,0,0.31,0.05,0.4,0.15
		c0.09,0.1,0.14,0.24,0.14,0.42c0,0.17-0.05,0.31-0.14,0.42c-0.09,0.1-0.23,0.16-0.4,0.16c-0.17,0-0.3-0.05-0.4-0.16
		c-0.09-0.1-0.14-0.24-0.14-0.42C123.77,18.26,123.81,18.13,123.91,18.02"/>
	<path d="M126.5,18.98c-0.06,0.04-0.15,0.05-0.26,0.05c-0.13,0-0.23-0.02-0.31-0.07c-0.07-0.05-0.12-0.12-0.13-0.21h-0.39
		c0.01,0.18,0.09,0.32,0.23,0.42c0.14,0.1,0.34,0.15,0.58,0.15c0.23,0,0.42-0.05,0.54-0.14c0.13-0.09,0.19-0.22,0.19-0.39
		c0-0.14-0.04-0.24-0.12-0.32c-0.08-0.08-0.21-0.14-0.38-0.17l-0.39-0.08c-0.15-0.03-0.22-0.09-0.22-0.19
		c0-0.06,0.03-0.11,0.08-0.15c0.06-0.03,0.13-0.05,0.23-0.05c0.22,0,0.35,0.09,0.39,0.26h0.39c-0.02-0.17-0.09-0.3-0.23-0.4
		c-0.13-0.1-0.31-0.14-0.53-0.14c-0.22,0-0.39,0.05-0.51,0.14c-0.13,0.09-0.19,0.22-0.19,0.38c0,0.13,0.04,0.23,0.12,0.31
		c0.08,0.08,0.21,0.13,0.37,0.17l0.37,0.07c0.08,0.02,0.14,0.04,0.18,0.07c0.04,0.03,0.06,0.08,0.06,0.13
		C126.59,18.89,126.56,18.95,126.5,18.98"/>
</g>
</svg>
