<?xml version="1.0" encoding="utf-8"?>
<!-- Generator: Adobe Illustrator 23.1.0, SVG Export Plug-In . SVG Version: 6.00 Build 0)  -->
<svg version="1.1" id="Layer_2" xmlns="http://www.w3.org/2000/svg" xmlns:xlink="http://www.w3.org/1999/xlink" x="0px" y="0px"
	 viewBox="0 0 250 75" style="enable-background:new 0 0 250 75;" xml:space="preserve">
<style type="text/css">
	.st0{fill:#052EFF;}
	.st1{fill:#221F20;}
	.st2{fill:#FFFFFF;}
</style>
<rect y="0" class="st0" width="250" height="75"/>
<path class="st1" d="M133,38.7h77.1c2.8,0,5,2.2,5,5V62c0,2.8-2.2,5-5,5H133c-2.8,0-5-2.2-5-5V43.7C128,41,130.2,38.7,133,38.7"/>
<path class="st0" d="M175.6,41.2h33c2.2,0,4,1.8,4,4v15.3c0,2.2-1.8,4-4.1,4h-32.9c-2.2,0-4-1.8-4.1-4V45.3
	C171.5,43.1,173.3,41.2,175.6,41.2"/>
<path d="M150.3,8.8v2.3h0.2c1.6,0.3,2.8,1.6,2.8,3.3v13c0.1,1.7-1.1,3.1-2.8,3.4h-0.2V33h12.8v-2.2h-0.1c-1.6-0.2-2.8-1.6-2.8-3.2
	V14c0.1-1.5,1.3-2.7,2.8-2.9h0.1V8.8H150.3z"/>
<path d="M189.7,26.4c0-2.7-1.7-5-4.2-5.9c2.4-1.9,3-3.4,3-5.5c0-3.5-2.8-6.3-6.3-6.3H166v2.3h0.2c1.6,0.3,2.8,1.6,2.8,3.3v13
	c0.1,1.7-1.1,3.1-2.8,3.4h-0.2V33h17.5C188.3,32.6,190,28.2,189.7,26.4L189.7,26.4 M175.9,11.7h3.1c2.1,0,3.5,0.9,3.5,3
	c0,2.6-1.5,3.6-3.5,3.6h-3.1V11.7z M179,28.2h-3.1v-0.3l0,0v-6.4h3.1c2,0,3.8,1,3.8,3.2C182.8,27.7,181.1,28.2,179,28.2"/>
<path d="M54.2,25.9c0,4-2.7,4.8-4.2,4.8c-2.2,0-4.1-1.8-4.1-4l0,0V14c0.1-1.5,1.3-2.7,2.8-2.9h0.1V8.8H36v2.3h0.2
	c1.6,0.3,2.8,1.6,2.8,3.3v13c0.1,1.7-1.1,3.1-2.8,3.4H36V33h20.3V21.5h-2.2L54.2,25.9z"/>
<path d="M88.6,29.1L76.8,8.8H74L62.3,29.1c-0.6,1-1.7,1.6-2.8,1.6h-1.2V33h8.7v-2.4h-1.4c-0.3,0-1.5-0.1-0.9-1.3l1.9-3.3
	c0.1-0.1,0.2-0.1,0.3-0.1h10.2c0.1,0,0.2,0,0.3,0.1l1.9,3.3c0,0,0.9,1.4-0.9,1.3h-3V33h16.7v-2.4h-0.9C90.2,30.6,89.2,30,88.6,29.1
	 M68.4,23.3l3.8-6.5l0,0l4,6.5H68.4z"/>
<path d="M145.3,27.9c0.2-1,0.2-2,0-3.1c-0.3-1.8-1.6-3.2-3.3-3.8c3.2-1.2,4.9-4.9,3.6-8.1c-0.9-2.4-3.3-4-5.9-4h-16.1v2.3h0.2
	c1.6,0.3,2.8,1.6,2.8,3.3v13c0.1,1.7-1.1,3.1-2.8,3.4h-0.2V33h12.8v-2.2h-0.1c-1.6-0.2-2.8-1.6-2.8-3.2v-6.1h2.3h0.2
	c2.2,0.3,2.7,3.1,2.5,3.4c-1.4,2.6-0.5,5.9,2.1,7.4c0.6,0.4,1.3,0.6,2.1,0.7h5v-2.2c-0.6,0-1.2-0.2-1.6-0.7
	C145.4,29.5,145.2,28.7,145.3,27.9 M136.2,19.1h-2.7l0.1-7.4c0.4,0,2.5,0,2.7,0c2.2,0,4.1,1.3,4.1,3.5
	C140.3,17.4,138.4,19.2,136.2,19.1C136.2,19.1,136.2,19.1,136.2,19.1"/>
<path d="M206.9,11.1c1.5,0.2,2.7,1.5,2.8,3v9.3c0,2.6-2.1,4.8-4.7,4.8c-2.6,0.2-4.9-1.7-5.2-4.3c0-0.1,0-0.3,0-0.4V14
	c0.1-1.5,1.3-2.7,2.8-2.9h0.1V8.8H190v2.3c1.6,0.1,3,1.4,3,3.1v11.1c0.1,4.3,3.7,7.7,8,7.7h3.5c4.3,0,7.7-3.5,7.7-7.7V14.1
	c0.1-1.5,1.3-2.8,2.8-3h0.1V8.8h-8.2V11.1z"/>
<path d="M99.9,15.8h3.2v-0.6c0-1.9,1.5-3.5,3.4-3.5c0.3,0,0.5,0,0.8,0.1l0,0v15.6c0.1,1.8-1.3,3.3-3.1,3.4c-0.4,0-0.7,0-1-0.1V33
	h15.1v-2.4c-1.7,0.5-3.5-0.5-4-2.2c-0.1-0.3-0.1-0.5-0.1-0.8V11.7c1.8-0.4,3.7,0.8,4.1,2.6c0.1,0.3,0.1,0.6,0.1,0.9v0.6h3v-7H99.9
	V15.8z"/>
<path class="st2" d="M139.9,59.7c-1.6,0.1-3.1-0.5-4.1-1.7c-1-1.5-1.5-3.2-1.4-5c-0.1-1.9,0.4-3.7,1.4-5.3c1-1.2,2.5-1.9,4.1-1.9
	c1.1-0.1,2.3,0.3,3.2,0.9c0.9,0.7,1.4,1.6,1.5,2.7h-2.8c-0.1-0.4-0.3-0.8-0.7-1c-0.4-0.2-0.8-0.4-1.3-0.3c-0.8,0-1.5,0.3-1.9,1
	c-0.5,0.9-0.8,2-0.8,3.1h0.1c0.3-0.5,0.8-0.8,1.3-1.1c0.6-0.3,1.2-0.4,1.8-0.4c0.8,0,1.6,0.2,2.3,0.5c0.6,0.3,1.2,0.9,1.5,1.5
	c0.4,0.7,0.6,1.5,0.5,2.3c0,0.9-0.2,1.7-0.6,2.5c-0.4,0.7-1,1.2-1.7,1.6C141.8,59.5,140.9,59.7,139.9,59.7 M139.9,57.4
	c0.6,0,1.3-0.2,1.7-0.6c0.4-0.5,0.7-1.1,0.6-1.7c0-0.6-0.2-1.3-0.7-1.7c-0.5-0.4-1.2-0.7-1.9-0.6c-0.6,0-1.2,0.2-1.7,0.6
	c-0.4,0.4-0.7,0.9-0.7,1.5c0,0.7,0.2,1.4,0.7,1.9C138.5,57.2,139.2,57.5,139.9,57.4"/>
<path class="st2" d="M150.7,59.7c-1.3,0.1-2.6-0.3-3.6-1c-0.9-0.7-1.4-1.8-1.5-2.9h2.8c0,0.5,0.3,1,0.8,1.2c0.5,0.3,1.1,0.5,1.7,0.4
	c0.7,0,1.3-0.2,1.8-0.6c0.4-0.5,0.7-1.1,0.6-1.7c0-0.6-0.2-1.3-0.7-1.7c-0.5-0.4-1.2-0.6-1.8-0.6c-0.5,0-0.9,0.1-1.3,0.3
	c-0.4,0.2-0.7,0.4-1,0.7h-2.4l1-7.7h8.1v2.4h-5.9l-0.4,2.9h0.1c0.7-0.5,1.6-0.8,2.5-0.7c1.2-0.1,2.4,0.3,3.3,1.1
	c0.8,0.9,1.3,2,1.2,3.2c0.1,1.3-0.4,2.5-1.3,3.4C153.5,59.3,152.1,59.7,150.7,59.7"/>
<path class="st2" d="M162,59.7c-1.5,0.1-2.9-0.6-3.8-1.8c-1-1.5-1.4-3.3-1.3-5.1c-0.1-1.8,0.3-3.6,1.3-5.1c1.8-2.1,4.9-2.4,7-0.6
	c0.2,0.2,0.4,0.4,0.6,0.6c1,1.5,1.4,3.3,1.3,5.1c0.1,1.8-0.3,3.6-1.3,5.1C164.9,59.1,163.5,59.7,162,59.7 M162,57.3
	c0.8,0,1.5-0.4,1.8-1.1c0.5-1.1,0.7-2.3,0.6-3.5c0.1-1.2-0.1-2.4-0.6-3.5c-0.5-1-1.7-1.4-2.7-0.9c-0.4,0.2-0.7,0.5-0.9,0.9
	c-0.5,1.1-0.7,2.3-0.6,3.5c-0.1,1.2,0.1,2.4,0.6,3.5C160.5,56.9,161.2,57.4,162,57.3"/>
<path class="st2" d="M176.1,59.4l5.7-13.4h2.4l5.7,13.4h-2.3l-1.6-3.7h-6.1l-1.6,3.7H176.1z M180.6,53.8h4.7l-2.3-5.5h-0.1
	L180.6,53.8z"/>
<polygon class="st2" points="191.3,59.5 191.3,46.1 194.6,46.1 198.9,56.3 199,56.3 203.3,46.1 206.5,46.1 206.5,59.5 204.2,59.5 
	204.2,49 204.1,49 199.8,59.5 197.9,59.5 193.5,49 193.5,49 193.5,59.5 "/>
</svg>
