<?xml version="1.0" encoding="utf-8"?>
<!-- Generator: Adobe Illustrator 23.1.0, SVG Export Plug-In . SVG Version: 6.00 Build 0)  -->
<svg version="1.1" id="Layer_2" xmlns="http://www.w3.org/2000/svg" xmlns:xlink="http://www.w3.org/1999/xlink" x="0px" y="0px"
	 viewBox="0 0 179.1 58.3" style="enable-background:new 0 0 179.1 58.3;" xml:space="preserve">
<style type="text/css">
	.st0{display:none;fill:#052EFF;}
	.st1{fill:#FFFFFF;}
	.st2{fill:#052EFF;}
</style>
<g id="_650AM">
	<rect x="-35.2" y="-8.4" class="st0" width="250" height="75"/>
	<path class="st1" d="M97.2,29.9h77.1c2.8,0,5,2.2,5,5v18.3c0,2.8-2.2,5-5,5H97.2c-2.8,0-5-2.2-5-5V34.9
		C92.2,32.2,94.4,29.9,97.2,29.9"/>
	<path class="st2" d="M139.8,32.4h33c2.2,0,4,1.8,4,4v15.3c0,2.2-1.8,4-4.1,4h-32.9c-2.2,0-4-1.8-4.1-4V36.5
		C135.7,34.2,137.6,32.4,139.8,32.4"/>
	<path class="st1" d="M114.5,0v2.3h0.2c1.6,0.3,2.8,1.6,2.8,3.3v13c0.1,1.7-1.1,3.1-2.8,3.4h-0.2v2.2h12.8v-2.2h-0.1
		c-1.6-0.2-2.8-1.6-2.8-3.2V5.2c0.1-1.5,1.3-2.7,2.8-2.9h0.1V0H114.5z"/>
	<path class="st1" d="M153.9,17.6c0-2.7-1.7-5-4.2-5.9c2.4-1.9,3-3.4,3-5.5c0-3.5-2.8-6.3-6.3-6.3h-16.2v2.3h0.2
		c1.6,0.3,2.8,1.6,2.8,3.3v13c0.1,1.7-1.1,3.1-2.8,3.4h-0.2v2.2h17.5C152.5,23.8,154.2,19.4,153.9,17.6L153.9,17.6 M140.1,2.9h3.1
		c2.1,0,3.5,0.9,3.5,3c0,2.6-1.5,3.6-3.5,3.6h-3.1V2.9z M143.2,19.3h-3.1v-0.3l0,0v-6.4h3.1c2,0,3.8,1,3.8,3.2
		C147,18.9,145.3,19.3,143.2,19.3"/>
	<path class="st1" d="M18.4,17.1c0,4-2.7,4.8-4.2,4.8c-2.2,0-4.1-1.8-4.1-4l0,0V5.2c0.1-1.5,1.3-2.7,2.8-2.9h0.1V0H0.2v2.3h0.2
		C2,2.5,3.2,3.9,3.2,5.5v13c0.1,1.7-1.1,3.1-2.8,3.4H0.3v2.2h20.3V12.7h-2.2L18.4,17.1z"/>
	<path class="st1" d="M52.8,20.2L41,0h-2.8L26.5,20.2c-0.6,1-1.7,1.6-2.8,1.6h-1.2v2.4h8.7v-2.4h-1.4c-0.3,0-1.5-0.1-0.9-1.3
		l1.9-3.3c0.1-0.1,0.2-0.1,0.3-0.1h10.2c0.1,0,0.2,0,0.3,0.1l1.9,3.3c0,0,0.9,1.4-0.9,1.3h-3v2.4h16.7v-2.4h-0.9
		C54.4,21.8,53.4,21.2,52.8,20.2 M32.6,14.5L36.3,8l0,0l4,6.5H32.6z"/>
	<path class="st1" d="M109.6,19c0.2-1,0.2-2,0-3.1c-0.3-1.8-1.6-3.2-3.3-3.8c3.2-1.2,4.9-4.9,3.6-8.1c-0.9-2.4-3.3-4-5.9-4H87.9v2.3
		H88c1.6,0.3,2.8,1.6,2.8,3.3v13c0.1,1.7-1.1,3.1-2.8,3.4h-0.2v2.2h12.8v-2.2h-0.1c-1.6-0.2-2.8-1.6-2.8-3.2v-6.1h2.3h0.2
		c2.2,0.3,2.7,3.1,2.5,3.4c-1.4,2.6-0.5,5.9,2.1,7.4c0.6,0.4,1.3,0.6,2.1,0.7h5v-2.2c-0.6,0-1.2-0.2-1.6-0.7
		C109.6,20.7,109.4,19.9,109.6,19 M100.4,10.3h-2.7l0.1-7.4c0.4,0,2.5,0,2.7,0c2.2,0,4.1,1.3,4.1,3.5
		C104.5,8.6,102.6,10.4,100.4,10.3C100.4,10.3,100.4,10.3,100.4,10.3"/>
	<path class="st1" d="M171.1,2.3c1.5,0.2,2.7,1.5,2.8,3v9.3c0,2.6-2.1,4.8-4.7,4.8c-2.6,0.2-4.9-1.7-5.2-4.3c0-0.1,0-0.3,0-0.4V5.2
		c0.1-1.5,1.3-2.7,2.8-2.9h0.1V0h-12.7v2.3c1.6,0.1,3,1.4,3,3.1v11.1c0.1,4.3,3.7,7.7,8,7.7h3.5c4.3,0,7.7-3.5,7.7-7.7V5.3
		c0.1-1.5,1.3-2.8,2.8-3h0.1V0h-8.2V2.3z"/>
	<path class="st1" d="M64.1,6.9h3.2V6.3c0-1.9,1.5-3.5,3.4-3.5c0.3,0,0.5,0,0.8,0.1l0,0v15.6c0.1,1.8-1.3,3.3-3.1,3.4
		c-0.4,0-0.7,0-1-0.1v2.3h15.1v-2.4c-1.7,0.5-3.5-0.5-4-2.2c-0.1-0.3-0.1-0.5-0.1-0.8V2.9c1.8-0.4,3.7,0.8,4.1,2.6
		c0.1,0.3,0.1,0.6,0.1,0.9V7h3V0H64.1V6.9z"/>
	<path d="M104.1,50.8c-1.6,0.1-3.1-0.5-4.1-1.7c-1-1.5-1.5-3.2-1.4-5c-0.1-1.9,0.4-3.7,1.4-5.3c1-1.2,2.5-1.9,4.1-1.9
		c1.1-0.1,2.3,0.3,3.2,0.9c0.9,0.7,1.4,1.6,1.5,2.7h-2.8c-0.1-0.4-0.3-0.8-0.7-1c-0.4-0.2-0.8-0.4-1.3-0.3c-0.8,0-1.5,0.3-1.9,1
		c-0.5,0.9-0.8,2-0.8,3.1h0.1c0.3-0.5,0.8-0.8,1.3-1.1c0.6-0.3,1.2-0.4,1.8-0.4c0.8,0,1.6,0.2,2.3,0.5c0.6,0.3,1.2,0.9,1.5,1.5
		c0.4,0.7,0.6,1.5,0.5,2.3c0,0.9-0.2,1.7-0.6,2.5c-0.4,0.7-1,1.2-1.7,1.6C106,50.6,105.1,50.8,104.1,50.8 M104.1,48.6
		c0.6,0,1.3-0.2,1.7-0.6c0.4-0.5,0.7-1.1,0.6-1.7c0-0.6-0.2-1.3-0.7-1.7c-0.5-0.4-1.2-0.7-1.9-0.6c-0.6,0-1.2,0.2-1.7,0.6
		c-0.4,0.4-0.7,0.9-0.7,1.5c0,0.7,0.2,1.4,0.7,1.9C102.7,48.4,103.4,48.6,104.1,48.6"/>
	<path d="M114.9,50.8c-1.3,0.1-2.6-0.3-3.6-1c-0.9-0.7-1.4-1.8-1.5-2.9h2.8c0,0.5,0.3,1,0.8,1.2c0.5,0.3,1.1,0.5,1.7,0.4
		c0.7,0,1.3-0.2,1.8-0.6c0.4-0.5,0.7-1.1,0.6-1.7c0-0.6-0.2-1.3-0.7-1.7c-0.5-0.4-1.2-0.6-1.8-0.6c-0.5,0-0.9,0.1-1.3,0.3
		c-0.4,0.2-0.7,0.4-1,0.7h-2.4l1-7.7h8.1v2.4h-5.9l-0.4,2.9h0.1c0.7-0.5,1.6-0.8,2.5-0.7c1.2-0.1,2.4,0.3,3.3,1.1
		c0.8,0.9,1.3,2,1.2,3.2c0.1,1.3-0.4,2.5-1.3,3.4C117.7,50.5,116.4,50.9,114.9,50.8"/>
	<path d="M126.2,50.8c-1.5,0.1-2.9-0.6-3.8-1.8c-1-1.5-1.4-3.3-1.3-5.1c-0.1-1.8,0.3-3.6,1.3-5.1c1.8-2.1,4.9-2.4,7-0.6
		c0.2,0.2,0.4,0.4,0.6,0.6c1,1.5,1.4,3.3,1.3,5.1c0.1,1.8-0.3,3.6-1.3,5.1C129.1,50.2,127.7,50.9,126.2,50.8 M126.2,48.5
		c0.8,0,1.5-0.4,1.8-1.1c0.5-1.1,0.7-2.3,0.6-3.5c0.1-1.2-0.1-2.4-0.6-3.5c-0.5-1-1.7-1.4-2.7-0.9c-0.4,0.2-0.7,0.5-0.9,0.9
		c-0.5,1.1-0.7,2.3-0.6,3.5c-0.1,1.2,0.1,2.4,0.6,3.5C124.7,48.1,125.4,48.5,126.2,48.5"/>
	<path d="M140.3,50.6l5.7-13.4h2.4l5.7,13.4h-2.3l-1.6-3.7h-6.1l-1.6,3.7H140.3z M144.9,45h4.7l-2.3-5.5h-0.1L144.9,45z"/>
	<polygon points="155.5,50.6 155.5,37.2 158.8,37.2 163.1,47.4 163.2,47.4 167.5,37.2 170.7,37.2 170.7,50.6 168.4,50.6 168.4,40.2 
		168.4,40.2 164,50.6 162.1,50.6 157.8,40.2 157.7,40.2 157.7,50.6 	"/>
</g>
</svg>
