<svg id="Layer_1" data-name="Layer 1" xmlns="http://www.w3.org/2000/svg" viewBox="0 0 250 75"><defs><style>.cls-1{fill:#04e58f;}.cls-2{fill:#221f20;}.cls-3{fill:#fff;}</style></defs><title>logo-deport</title><g id="DEPORT"><rect class="cls-1" width="250" height="75"/><path class="cls-2" d="M150,8.34h12.51v2.28h-.12a3.26,3.26,0,0,0-2.83,2.93V27.11a3.26,3.26,0,0,0,2.83,3.19h.12v2.22H149.69V30.3h.16a3.28,3.28,0,0,0,2.76-3.39v-13a3.31,3.31,0,0,0-2.78-3.27h-.16V8.34ZM189.11,26c.32,1.78-1.35,6.16-6.08,6.53H165.47V30.3h.15a3.28,3.28,0,0,0,2.77-3.39v-13a3.32,3.32,0,0,0-2.78-3.27h-.16V8.34h16.14a6.28,6.28,0,0,1,6.28,6.28c0,2.05-.58,3.6-3,5.47A6.2,6.2,0,0,1,189.11,26v0m-13.78-8.14h3.1c2,0,3.55-1.07,3.54-3.65,0-2-1.49-3-3.54-3h-3.1Zm6.86,6.36c0-2.14-1.71-3.19-3.76-3.19h-3.11v6.41h0v.26h3.1c2,0,3.76-.52,3.76-3.48M53.57,25.41c0,4-2.67,4.84-4.16,4.84a4.07,4.07,0,0,1-4.11-4h0V13.55a3.26,3.26,0,0,1,2.82-2.93h.13V8.34H35.44v2.27h.15a3.31,3.31,0,0,1,2.78,3.27v13a3.27,3.27,0,0,1-2.76,3.39h-.15v2.22H55.74V21H53.51Zm37.2,4.73h.86v2.38H74.9V30.14h2.95c1.8.06.93-1.27.92-1.3l-1.91-3.28a.3.3,0,0,0-.26-.15H66.44a.3.3,0,0,0-.26.15l-1.92,3.28c-.67,1.22.54,1.32.86,1.3H66.5v2.38H57.76V30.14h1.15a3.25,3.25,0,0,0,2.82-1.56L73.45,8.34h2.79L88,28.58a3.24,3.24,0,0,0,2.81,1.56M75.49,22.81l-4-6.48h0l-3.75,6.48Zm70,6.82a2.2,2.2,0,0,0,1.62.67v2.22h-5a6.07,6.07,0,0,1-2.07-.71,5.49,5.49,0,0,1-2.05-7.36c.19-.26-.29-3.05-2.5-3.39l-.18,0h-2.31v6.08a3.26,3.26,0,0,0,2.82,3.19h.13v2.22H123.08V30.3h.15A3.27,3.27,0,0,0,126,26.91v-13a3.31,3.31,0,0,0-2.78-3.27h-.15V8.34h16.12a6.3,6.3,0,0,1,2.26,12.18,5,5,0,0,1,3.31,3.8,7.93,7.93,0,0,1,0,3.07,2.43,2.43,0,0,0,.69,2.24m-5.71-15c0-2.2-1.89-3.47-4.1-3.47H133l-.06,7.43h2.66a4.08,4.08,0,0,0,4.16-4m66.56-4.05a3.19,3.19,0,0,1,2.8,3l0,9.26a4.83,4.83,0,0,1-4.73,4.85,4.75,4.75,0,0,1-5.19-4.69l0-9.52A3.25,3.25,0,0,1,202,10.6h.13V8.34H189.39v2.29a3.12,3.12,0,0,1,2.94,3V24.8a8,8,0,0,0,8,7.72h3.46a7.72,7.72,0,0,0,7.72-7.72V13.64a3.19,3.19,0,0,1,2.81-3h.13V8.34H206.3Zm-107,4.67h3.21v-.6a3.44,3.44,0,0,1,4.15-3.42h0V26.91a3.24,3.24,0,0,1-4.12,3.28v2.33h15.12V30.15a3.19,3.19,0,0,1-4.08-3l0-15.9a3.42,3.42,0,0,1,4.15,3.48v.6h3V8.34H99.27Z"/><path class="cls-2" d="M57.84,38H209.36a5.15,5.15,0,0,1,5.2,5.09V61.57a5.15,5.15,0,0,1-5.2,5.09H57.84a5.15,5.15,0,0,1-5.21-5.09V43.13A5.15,5.15,0,0,1,57.84,38"/><path class="cls-1" d="M177,40.56h31.58A3.42,3.42,0,0,1,212,44V60.72a3.42,3.42,0,0,1-3.42,3.42H177a3.42,3.42,0,0,1-3.42-3.42V44A3.42,3.42,0,0,1,177,40.56"/><path class="cls-3" d="M133,59.21V48.78l-3.54,2.49h-.07V48.51l4-2.78h2.34V59.21Zm8.82,0V48.78l-3.55,2.49h-.06V48.51l4-2.78h2.35V59.21Zm5.17,0V57.38l5.54-5.31a7.81,7.81,0,0,0,1.25-1.4,2.11,2.11,0,0,0,.32-1.09,1.66,1.66,0,0,0-.55-1.31A2.49,2.49,0,0,0,149.57,50h-2.63a4.61,4.61,0,0,1,1.48-3.31,5.23,5.23,0,0,1,3.6-1.19,6.07,6.07,0,0,1,2.51.49,3.84,3.84,0,0,1,1.65,1.39,4,4,0,0,1,0,4.11,10.41,10.41,0,0,1-1.81,2.1l-3.44,3.18v.06h6v2.35Zm16.31.2a4.47,4.47,0,0,1-3.84-1.77,8.65,8.65,0,0,1-1.3-5.17,8.62,8.62,0,0,1,1.3-5.16,5,5,0,0,1,7.67,0,8.54,8.54,0,0,1,1.31,5.16,8.58,8.58,0,0,1-1.31,5.17,4.45,4.45,0,0,1-3.83,1.77m0-2.33a1.91,1.91,0,0,0,1.8-1.11,8.08,8.08,0,0,0,.58-3.5,8,8,0,0,0-.58-3.49,2,2,0,0,0-3.59,0,7.84,7.84,0,0,0-.59,3.51,7.84,7.84,0,0,0,.59,3.51,1.92,1.92,0,0,0,1.79,1.1"/><path class="cls-3" d="M60.1,59.21V45.73H65a8.25,8.25,0,0,1,3.79.81,5.7,5.7,0,0,1,2.44,2.32,7.12,7.12,0,0,1,.86,3.61,7.21,7.21,0,0,1-.86,3.6,5.89,5.89,0,0,1-2.46,2.33,8.19,8.19,0,0,1-3.77.81ZM62,57.58h3a5.18,5.18,0,0,0,3.81-1.35,5.08,5.08,0,0,0,1.35-3.76,5.09,5.09,0,0,0-1.35-3.77A5.17,5.17,0,0,0,65,47.36H62Zm16.64,1.83a5.43,5.43,0,0,1-2.71-.64A4.32,4.32,0,0,1,74.17,57a5.79,5.79,0,0,1-.63-2.76,5.63,5.63,0,0,1,.63-2.74,4.37,4.37,0,0,1,1.75-1.79A5.38,5.38,0,0,1,78.57,49a5.08,5.08,0,0,1,2.5.58,4.07,4.07,0,0,1,1.64,1.65,5.17,5.17,0,0,1,.58,2.53v.75h-8a3.5,3.5,0,0,0,1,2.43,3.12,3.12,0,0,0,2.33.88,3.3,3.3,0,0,0,1.72-.43,2.17,2.17,0,0,0,1-1.25h1.9a3.89,3.89,0,0,1-1.57,2.39,5,5,0,0,1-3,.85m-3.24-6.24H81.5a2.87,2.87,0,0,0-.91-1.91,3,3,0,0,0-2-.69,3.16,3.16,0,0,0-2.08.69,3.1,3.1,0,0,0-1.06,1.91m10.25,10v-12h-1V49.23h2v1.53h.7a3.19,3.19,0,0,1,1.36-1.29A4.41,4.41,0,0,1,90.81,49a4.92,4.92,0,0,1,2.57.63,4.13,4.13,0,0,1,1.6,1.8,6.32,6.32,0,0,1,.56,2.76A6.38,6.38,0,0,1,95,57a4.13,4.13,0,0,1-1.57,1.8,4.57,4.57,0,0,1-2.44.63,4.32,4.32,0,0,1-2.06-.47,3.18,3.18,0,0,1-1.33-1.34h-.07v5.6Zm4.87-5.39a2.88,2.88,0,0,0,2.32-1,3.89,3.89,0,0,0,.83-2.64,3.93,3.93,0,0,0-.83-2.65,2.91,2.91,0,0,0-2.32-1,3.06,3.06,0,0,0-2.19.79,2.72,2.72,0,0,0-.82,2.08V55A2.72,2.72,0,0,0,88.34,57a3.06,3.06,0,0,0,2.19.78m11.5,1.6a5.51,5.51,0,0,1-2.71-.64A4.43,4.43,0,0,1,97.54,57a5.55,5.55,0,0,1-.64-2.74,5.62,5.62,0,0,1,.64-2.75,4.47,4.47,0,0,1,1.78-1.8A5.51,5.51,0,0,1,102,49a5.6,5.6,0,0,1,2.74.63,4.42,4.42,0,0,1,1.76,1.8,6.43,6.43,0,0,1,0,5.51,4.41,4.41,0,0,1-1.77,1.81,5.62,5.62,0,0,1-2.73.63m0-1.63a3.07,3.07,0,0,0,2.4-.94,4.44,4.44,0,0,0,0-5.25,3.55,3.55,0,0,0-4.8,0,4.42,4.42,0,0,0,0,5.24,3.1,3.1,0,0,0,2.4.94m7.67,1.43V51.16h-1V49.23h2v1.86h.7a3.14,3.14,0,0,1,1.29-1.43,4,4,0,0,1,2-.52h.82v1.6h-.92a3,3,0,0,0-2.31.88,3.38,3.38,0,0,0-.81,2.38v5.21Zm9.93,0a1.78,1.78,0,0,1-1.24-.41,1.6,1.6,0,0,1-.44-1.22V50.66h-1.86V49.23H118v-3h1.83v3h2.61v1.43h-2.59v7.09h2.86v1.46Z"/><path class="cls-2" d="M177.25,59,183,45.48h2.47L191.16,59h-2.34l-1.58-3.7h-6.13L179.53,59Zm4.61-5.66h4.71l-2.31-5.51h-.08ZM192.61,59V45.48h3.25l4.36,10.27h.06l4.38-10.27h3.23V59h-2.32V48.49h-.06L201.15,59h-1.93l-4.38-10.48h-.07V59Z"/></g></svg>