<?xml version="1.0" encoding="UTF-8"?>
<svg id="Capa_1" xmlns="http://www.w3.org/2000/svg" version="1.1" viewBox="0 0 3010.3 1066.9">
  <!-- Generator: Adobe Illustrator 29.7.1, SVG Export Plug-In . SVG Version: 2.1.1 Build 8)  -->
  <defs>
    <style>
      .st0 {
        fill: #ff7364;
      }
    </style>
  </defs>
  <path class="st0" d="M1180.9,658.6v-.3h-20.2c-40.3,0-73.2-31.6-75.4-71.4v-61s90.9,0,90.9,0c37.5,0,67.8-30.4,67.8-67.8,0-37.5-30.4-67.8-67.8-67.8h-90.9v-65.1c0-37.6-30.5-68.1-68.1-68.1s-68.1,30.5-68.1,68.1v264.1c0,.2,0,.4,0,.6v23.8c0,99.8,80.9,180.8,180.8,180.8h48.2l-.2-.3c0,0,.1,0,.2,0,37.5,0,67.8-30.4,67.8-67.8,0-36.5-28.9-66.2-65.1-67.7Z"/>
  <path class="st0" d="M1492.6,658.6v-.3h-20.2c-40.3,0-73.2-31.6-75.4-71.4v-61h90.9c37.5,0,67.8-30.4,67.8-67.8s-30.4-67.8-67.8-67.8h-90.9v-65.1c0-37.6-30.5-68.1-68.1-68.1s-68.1,30.5-68.1,68.1v264.1c0,.2,0,.4,0,.6v23.8c0,99.8,80.9,180.8,180.8,180.8h48.2l-.2-.3c0,0,.1,0,.2,0,37.5,0,67.8-30.4,67.8-67.8s-28.9-66.2-65.1-67.7Z"/>
  <path class="st0" d="M2245.8,587.3l88.9-88.9c26.8-26.8,26.8-70.1,0-96.9h0c-26.8-26.8-70.1-26.8-96.9,0l-88.9,88.9-1.1-1.1v-31c0-3.4-.3-6.8-.7-10.1v-123c0-37.6-30.5-68.1-68.1-68.1s-68.1,30.5-68.1,68.1v399.5c0,37.8,30.7,68.5,68.5,68.5h0c37.8,0,68.5-30.7,68.5-68.5v-39.4l1.1-1.1,88.9,88.9c26.8,26.8,70.1,26.8,96.9,0h0c26.8-26.8,26.8-70.1,0-96.9l-88.9-88.9Z"/>
  <path class="st0" d="M1772.7,385.3c-117.2,0-212.3,95-212.3,212.3s95,212.3,212.3,212.3,212.3-95,212.3-212.3-95-212.3-212.3-212.3ZM1773.1,670.6c-40.1,0-72.6-32.5-72.6-72.6s32.5-72.6,72.6-72.6,72.6,32.5,72.6,72.6-32.5,72.6-72.6,72.6Z"/>
  <path class="st0" d="M844.1,389.8h0c-37.8,0-68.5,30.7-68.5,68.5v138.6h-.5c-.3,40.3-33.1,72.8-73.4,72.8s-73.1-32.6-73.4-72.8h-.5v-138.6c0-37.8-30.7-68.5-68.5-68.5h0c-37.8,0-68.5,30.7-68.5,68.5v138.7l.2-.8c0,116.4,94.4,210.8,210.8,210.8s210.8-94.4,210.8-210.8l.2,1v-139c0-37.8-30.7-68.5-68.5-68.5Z"/>
  <rect class="st0" x="2382.1" y="388.2" width="137.6" height="405.1" rx="68.8" ry="68.8"/>
</svg>